<?xml version="1.0" standalone="no"?>
<!DOCTYPE svg PUBLIC "-//W3C//DTD SVG 20010904//EN"
 "http://www.w3.org/TR/2001/REC-SVG-20010904/DTD/svg10.dtd">
<svg version="1.0" xmlns="http://www.w3.org/2000/svg"
 width="247.000000pt" height="247.000000pt" viewBox="0 0 247.000000 247.000000"
 preserveAspectRatio="xMidYMid meet">
<metadata>
Created by potrace 1.14, written by Peter Selinger 2001-2017
</metadata>
<g transform="translate(0.000000,247.000000) scale(0.100000,-0.100000)"
fill="#000000" stroke="none">
<path d="M0 1235 l0 -1235 1235 0 1235 0 0 1235 0 1235 -1235 0 -1235 0 0
-1235z m1550 826 c105 -21 241 -67 252 -85 4 -6 8 -89 8 -184 0 -152 -2 -173
-17 -179 -9 -3 -26 0 -39 8 -123 78 -177 106 -252 133 -80 28 -97 31 -217 31
-126 0 -132 -1 -185 -30 -93 -51 -123 -123 -80 -193 27 -43 93 -73 240 -107
275 -63 399 -115 490 -205 83 -81 120 -180 120 -315 0 -70 -33 -194 -66 -247
-80 -130 -227 -224 -413 -264 -92 -20 -372 -23 -471 -5 -75 14 -238 62 -304
91 l-46 19 0 196 c0 226 -2 223 90 154 211 -158 533 -221 700 -136 82 42 113
125 72 192 -30 49 -103 80 -307 130 -346 84 -471 172 -525 367 -35 127 -22
262 38 371 14 27 56 76 92 109 97 89 205 137 390 172 58 11 338 -4 430 -23z"/>
</g>
</svg>
